<mxfile host="app.diagrams.net" modified="2023-09-19T06:23:08.810Z" agent="Mozilla/5.0 (Windows NT 10.0; Win64; x64) AppleWebKit/537.36 (KHTML, like Gecko) Chrome/116.0.0.0 Safari/537.36" etag="3lz3NwPqOqfUmkxpSV9-" version="21.7.5" type="github">
  <diagram id="6a731a19-8d31-9384-78a2-239565b7b9f0" name="Page-1">
    <mxGraphModel dx="1600" dy="1638" grid="1" gridSize="10" guides="1" tooltips="1" connect="1" arrows="1" fold="1" page="1" pageScale="1" pageWidth="1169" pageHeight="827" background="none" math="0" shadow="0">
      <root>
        <mxCell id="0" />
        <mxCell id="1" parent="0" />
        <mxCell id="1745" value="" style="edgeStyle=none;rounded=0;jumpStyle=none;html=1;shadow=0;labelBackgroundColor=none;startArrow=none;startFill=0;endArrow=classic;endFill=1;jettySize=auto;orthogonalLoop=1;strokeColor=#2F5B7C;strokeWidth=3;fontFamily=Comic Sans MS;fontSize=16;fontColor=#000000;spacing=5;" parent="1" source="1749" target="1764" edge="1">
          <mxGeometry relative="1" as="geometry" />
        </mxCell>
        <mxCell id="1748" value="" style="edgeStyle=none;rounded=0;jumpStyle=none;html=1;shadow=0;labelBackgroundColor=none;startArrow=none;startFill=0;endArrow=classic;endFill=1;jettySize=auto;orthogonalLoop=1;strokeColor=#2F5B7C;strokeWidth=3;fontFamily=Comic Sans MS;fontSize=16;fontColor=#000000;spacing=5;exitX=0.5;exitY=1;exitDx=0;exitDy=0;" parent="1" source="1749" target="1753" edge="1">
          <mxGeometry relative="1" as="geometry" />
        </mxCell>
        <mxCell id="1749" value="&lt;span style=&quot;font-size: 26px;&quot;&gt;&lt;font style=&quot;font-size: 26px;&quot;&gt;Challenges and Considerations&lt;/font&gt;&lt;/span&gt;" style="rounded=1;whiteSpace=wrap;html=1;shadow=0;labelBackgroundColor=none;strokeColor=#d6b656;strokeWidth=3;fillColor=#fff2cc;fontFamily=Verdana;fontSize=26;align=center;fontStyle=1;spacing=5;arcSize=7;perimeterSpacing=2;gradientColor=#ffd966;" parent="1" vertex="1">
          <mxGeometry x="430" y="380.5" width="280" height="70" as="geometry" />
        </mxCell>
        <mxCell id="1750" value="" style="edgeStyle=none;rounded=1;jumpStyle=none;html=1;shadow=0;labelBackgroundColor=none;startArrow=none;startFill=0;jettySize=auto;orthogonalLoop=1;strokeColor=#E85642;strokeWidth=3;fontFamily=Comic Sans MS;fontSize=14;fontColor=#000000;spacing=5;fontStyle=1;fillColor=#b0e3e6;" parent="1" source="1753" target="1756" edge="1">
          <mxGeometry relative="1" as="geometry" />
        </mxCell>
        <mxCell id="1751" value="" style="edgeStyle=none;rounded=1;jumpStyle=none;html=1;shadow=0;labelBackgroundColor=none;startArrow=none;startFill=0;jettySize=auto;orthogonalLoop=1;strokeColor=#E85642;strokeWidth=3;fontFamily=Comic Sans MS;fontSize=14;fontColor=#000000;spacing=5;fontStyle=1;fillColor=#b0e3e6;" parent="1" source="1753" target="1755" edge="1">
          <mxGeometry relative="1" as="geometry" />
        </mxCell>
        <mxCell id="1752" value="" style="edgeStyle=none;rounded=1;jumpStyle=none;html=1;shadow=0;labelBackgroundColor=none;startArrow=none;startFill=0;jettySize=auto;orthogonalLoop=1;strokeColor=#E85642;strokeWidth=3;fontFamily=Comic Sans MS;fontSize=14;fontColor=#000000;spacing=5;fontStyle=1;fillColor=#b0e3e6;exitX=0.25;exitY=1;exitDx=0;exitDy=0;" parent="1" source="fG_izT3CtpHWqRbIgSZo-1786" target="1754" edge="1">
          <mxGeometry relative="1" as="geometry">
            <Array as="points" />
          </mxGeometry>
        </mxCell>
        <mxCell id="1753" value=" Ensuring Accessibility and Inclusivity in Metaverse Environments" style="rounded=1;whiteSpace=wrap;html=1;shadow=0;labelBackgroundColor=none;strokeColor=#3700CC;strokeWidth=3;fillColor=#6a00ff;fontFamily=Comic Sans MS;fontSize=14;fontColor=#000000;align=center;spacing=5;fontStyle=1;arcSize=7;perimeterSpacing=2;" parent="1" vertex="1">
          <mxGeometry x="380" y="590" width="150" height="104.5" as="geometry" />
        </mxCell>
        <mxCell id="1754" value="Digital Addiction" style="rounded=1;whiteSpace=wrap;html=1;shadow=0;labelBackgroundColor=none;strokeColor=#A50040;strokeWidth=3;fillColor=#d80073;fontFamily=Comic Sans MS;fontSize=14;fontColor=#ffffff;align=center;spacing=5;fontStyle=0;arcSize=7;perimeterSpacing=2;" parent="1" vertex="1">
          <mxGeometry x="625" y="827" width="150" height="60" as="geometry" />
        </mxCell>
        <mxCell id="1755" value=" Inclusivity" style="rounded=1;whiteSpace=wrap;html=1;shadow=0;labelBackgroundColor=none;strokeColor=#A50040;strokeWidth=3;fillColor=#d80073;fontFamily=Comic Sans MS;fontSize=14;fontColor=#ffffff;align=center;spacing=5;fontStyle=0;arcSize=7;perimeterSpacing=2;" parent="1" vertex="1">
          <mxGeometry x="430" y="830" width="150" height="60" as="geometry" />
        </mxCell>
        <mxCell id="1756" value="Accessibility" style="rounded=1;whiteSpace=wrap;html=1;shadow=0;labelBackgroundColor=none;strokeColor=#A50040;strokeWidth=3;fillColor=#d80073;fontFamily=Comic Sans MS;fontSize=14;fontColor=#ffffff;align=center;spacing=5;fontStyle=0;arcSize=7;perimeterSpacing=2;" parent="1" vertex="1">
          <mxGeometry x="200" y="800.5" width="150" height="60" as="geometry" />
        </mxCell>
        <mxCell id="1764" value="Legal, Regulatory, and Ethical Issues in Virtual Spaces" style="rounded=1;whiteSpace=wrap;html=1;shadow=0;labelBackgroundColor=none;strokeColor=none;strokeWidth=3;fillColor=#F08705;fontFamily=Comic Sans MS;fontSize=14;fontColor=#000000;align=center;spacing=5;fontStyle=1;arcSize=7;perimeterSpacing=2;" parent="1" vertex="1">
          <mxGeometry x="495" y="230" width="150" height="60" as="geometry" />
        </mxCell>
        <mxCell id="1765" value="Digital Property Rights" style="rounded=1;whiteSpace=wrap;html=1;shadow=0;labelBackgroundColor=none;strokeColor=none;strokeWidth=3;fillColor=#f5af58;fontFamily=Comic Sans MS;fontSize=14;fontColor=#000000;align=center;spacing=5;arcSize=7;perimeterSpacing=2;" parent="1" vertex="1">
          <mxGeometry x="20" y="320.5" width="150" height="60" as="geometry" />
        </mxCell>
        <mxCell id="1766" value="" style="edgeStyle=none;rounded=0;jumpStyle=none;html=1;shadow=0;labelBackgroundColor=none;startArrow=none;startFill=0;endArrow=classic;endFill=1;jettySize=auto;orthogonalLoop=1;strokeColor=#F08705;strokeWidth=3;fontFamily=Comic Sans MS;fontSize=14;fontColor=#000000;spacing=5;entryX=0.5;entryY=1;entryDx=0;entryDy=0;" parent="1" source="1764" target="fG_izT3CtpHWqRbIgSZo-1788" edge="1">
          <mxGeometry relative="1" as="geometry" />
        </mxCell>
        <mxCell id="1767" value="Ethical Concerns" style="rounded=1;whiteSpace=wrap;html=1;shadow=0;labelBackgroundColor=none;strokeColor=none;strokeWidth=3;fillColor=#f5af58;fontFamily=Comic Sans MS;fontSize=14;fontColor=#000000;align=center;spacing=5;arcSize=7;perimeterSpacing=2;" parent="1" vertex="1">
          <mxGeometry y="430" width="150" height="60" as="geometry" />
        </mxCell>
        <mxCell id="1768" value="" style="edgeStyle=none;rounded=0;jumpStyle=none;html=1;shadow=0;labelBackgroundColor=none;startArrow=none;startFill=0;endArrow=classic;endFill=1;jettySize=auto;orthogonalLoop=1;strokeColor=#F08705;strokeWidth=3;fontFamily=Comic Sans MS;fontSize=14;fontColor=#000000;spacing=5;" parent="1" source="1764" target="1767" edge="1">
          <mxGeometry relative="1" as="geometry" />
        </mxCell>
        <mxCell id="1769" value="Legal and Regulatory Challenges" style="rounded=1;whiteSpace=wrap;html=1;shadow=0;labelBackgroundColor=none;strokeColor=none;strokeWidth=3;fillColor=#f5af58;fontFamily=Comic Sans MS;fontSize=14;fontColor=#000000;align=center;spacing=5;arcSize=7;perimeterSpacing=2;" parent="1" vertex="1">
          <mxGeometry x="10" y="530" width="150" height="60" as="geometry" />
        </mxCell>
        <mxCell id="1770" value="" style="edgeStyle=none;rounded=0;jumpStyle=none;html=1;shadow=0;labelBackgroundColor=none;startArrow=none;startFill=0;endArrow=classic;endFill=1;jettySize=auto;orthogonalLoop=1;strokeColor=#F08705;strokeWidth=3;fontFamily=Comic Sans MS;fontSize=14;fontColor=#000000;spacing=5;" parent="1" source="1764" target="1769" edge="1">
          <mxGeometry relative="1" as="geometry" />
        </mxCell>
        <mxCell id="fG_izT3CtpHWqRbIgSZo-1779" value="Mental Health" style="rounded=1;whiteSpace=wrap;html=1;fontColor=#ffffff;fillColor=#d80073;strokeColor=#A50040;fontFamily=Comic Sans MS;" vertex="1" parent="1">
          <mxGeometry x="890" y="800.5" width="145" height="60" as="geometry" />
        </mxCell>
        <mxCell id="fG_izT3CtpHWqRbIgSZo-1780" value="" style="endArrow=classic;html=1;rounded=0;entryX=0.5;entryY=0;entryDx=0;entryDy=0;fontColor=#000000;fillColor=#d80073;strokeColor=#FF6666;strokeWidth=4;exitX=0.5;exitY=1;exitDx=0;exitDy=0;fontFamily=Comic Sans MS;" edge="1" parent="1" source="fG_izT3CtpHWqRbIgSZo-1786" target="fG_izT3CtpHWqRbIgSZo-1779">
          <mxGeometry width="50" height="50" relative="1" as="geometry">
            <mxPoint x="810" y="730" as="sourcePoint" />
            <mxPoint x="1215" y="829" as="targetPoint" />
          </mxGeometry>
        </mxCell>
        <mxCell id="fG_izT3CtpHWqRbIgSZo-1781" value="Privacy and Data Protection" style="rounded=1;whiteSpace=wrap;html=1;fontFamily=Comic Sans MS;" vertex="1" parent="1">
          <mxGeometry x="20" y="230" width="120" height="60" as="geometry" />
        </mxCell>
        <mxCell id="fG_izT3CtpHWqRbIgSZo-1783" value="Content Moderation and Governance" style="rounded=1;whiteSpace=wrap;html=1;fontFamily=Comic Sans MS;" vertex="1" parent="1">
          <mxGeometry x="70" y="150" width="120" height="60" as="geometry" />
        </mxCell>
        <mxCell id="fG_izT3CtpHWqRbIgSZo-1785" value="Digital Divide and Access Equity" style="rounded=1;whiteSpace=wrap;html=1;fontFamily=Comic Sans MS;" vertex="1" parent="1">
          <mxGeometry x="125" y="70" width="120" height="60" as="geometry" />
        </mxCell>
        <mxCell id="fG_izT3CtpHWqRbIgSZo-1786" value="Addressing Concerns Related to Digital Addiction and Mental Health" style="rounded=1;whiteSpace=wrap;html=1;fontFamily=Comic Sans MS;" vertex="1" parent="1">
          <mxGeometry x="680" y="590" width="150" height="90" as="geometry" />
        </mxCell>
        <mxCell id="fG_izT3CtpHWqRbIgSZo-1787" value="" style="endArrow=classic;html=1;rounded=0;exitX=0.5;exitY=1;exitDx=0;exitDy=0;entryX=0.25;entryY=0;entryDx=0;entryDy=0;fontFamily=Comic Sans MS;" edge="1" parent="1" source="1749" target="fG_izT3CtpHWqRbIgSZo-1786">
          <mxGeometry width="50" height="50" relative="1" as="geometry">
            <mxPoint x="560" y="600" as="sourcePoint" />
            <mxPoint x="610" y="550" as="targetPoint" />
          </mxGeometry>
        </mxCell>
        <mxCell id="fG_izT3CtpHWqRbIgSZo-1788" value="Sustainability" style="rounded=1;whiteSpace=wrap;html=1;fontFamily=Comic Sans MS;" vertex="1" parent="1">
          <mxGeometry x="182.5" y="-20" width="120" height="60" as="geometry" />
        </mxCell>
        <mxCell id="fG_izT3CtpHWqRbIgSZo-1789" value="Interoperability and Standardization" style="rounded=1;whiteSpace=wrap;html=1;fontFamily=Comic Sans MS;" vertex="1" parent="1">
          <mxGeometry x="290" y="-90" width="120" height="60" as="geometry" />
        </mxCell>
        <mxCell id="fG_izT3CtpHWqRbIgSZo-1790" value="Identity and Authentication" style="rounded=1;whiteSpace=wrap;html=1;fontFamily=Comic Sans MS;" vertex="1" parent="1">
          <mxGeometry x="430" y="-110" width="120" height="60" as="geometry" />
        </mxCell>
        <mxCell id="fG_izT3CtpHWqRbIgSZo-1791" value="Cultural Sensitivity and Representation" style="rounded=1;whiteSpace=wrap;html=1;fontFamily=Comic Sans MS;" vertex="1" parent="1">
          <mxGeometry x="570" y="-120" width="120" height="60" as="geometry" />
        </mxCell>
        <mxCell id="fG_izT3CtpHWqRbIgSZo-1792" value="Education and Awareness" style="rounded=1;whiteSpace=wrap;html=1;fontFamily=Comic Sans MS;" vertex="1" parent="1">
          <mxGeometry x="710" y="-100" width="120" height="60" as="geometry" />
        </mxCell>
        <mxCell id="fG_izT3CtpHWqRbIgSZo-1793" value="Long-term Viability" style="rounded=1;whiteSpace=wrap;html=1;fontFamily=Comic Sans MS;" vertex="1" parent="1">
          <mxGeometry x="860" y="-60" width="120" height="60" as="geometry" />
        </mxCell>
        <mxCell id="fG_izT3CtpHWqRbIgSZo-1794" value="International Collaboration and Governance" style="rounded=1;whiteSpace=wrap;html=1;fontFamily=Comic Sans MS;" vertex="1" parent="1">
          <mxGeometry x="920" y="70" width="120" height="60" as="geometry" />
        </mxCell>
        <mxCell id="fG_izT3CtpHWqRbIgSZo-1795" value="Economic Disparities and Exploitation" style="rounded=1;whiteSpace=wrap;html=1;fontFamily=Comic Sans MS;" vertex="1" parent="1">
          <mxGeometry x="977.5" y="170" width="120" height="60" as="geometry" />
        </mxCell>
        <mxCell id="fG_izT3CtpHWqRbIgSZo-1796" value="Child Safety and Protection" style="rounded=1;whiteSpace=wrap;html=1;fontFamily=Comic Sans MS;" vertex="1" parent="1">
          <mxGeometry x="1017.5" y="270" width="120" height="60" as="geometry" />
        </mxCell>
        <mxCell id="fG_izT3CtpHWqRbIgSZo-1797" value="Environmental Responsibility" style="rounded=1;whiteSpace=wrap;html=1;fontFamily=Comic Sans MS;" vertex="1" parent="1">
          <mxGeometry x="1040" y="360" width="120" height="60" as="geometry" />
        </mxCell>
        <mxCell id="fG_izT3CtpHWqRbIgSZo-1798" value="Trust and Accountability" style="rounded=1;whiteSpace=wrap;html=1;fontFamily=Comic Sans MS;" vertex="1" parent="1">
          <mxGeometry x="1040" y="500.5" width="120" height="60" as="geometry" />
        </mxCell>
        <mxCell id="fG_izT3CtpHWqRbIgSZo-1799" value="" style="edgeStyle=none;rounded=0;jumpStyle=none;html=1;shadow=0;labelBackgroundColor=none;startArrow=none;startFill=0;endArrow=classic;endFill=1;jettySize=auto;orthogonalLoop=1;strokeColor=#F08705;strokeWidth=3;fontFamily=Comic Sans MS;fontSize=14;fontColor=#000000;spacing=5;exitX=0;exitY=0;exitDx=0;exitDy=0;" edge="1" parent="1" source="1764" target="fG_izT3CtpHWqRbIgSZo-1785">
          <mxGeometry relative="1" as="geometry">
            <mxPoint x="503" y="285" as="sourcePoint" />
            <mxPoint x="182" y="346" as="targetPoint" />
          </mxGeometry>
        </mxCell>
        <mxCell id="fG_izT3CtpHWqRbIgSZo-1800" value="" style="edgeStyle=none;rounded=0;jumpStyle=none;html=1;shadow=0;labelBackgroundColor=none;startArrow=none;startFill=0;endArrow=classic;endFill=1;jettySize=auto;orthogonalLoop=1;strokeColor=#F08705;strokeWidth=3;fontFamily=Comic Sans MS;fontSize=14;fontColor=#000000;spacing=5;entryX=1;entryY=0.5;entryDx=0;entryDy=0;exitX=0;exitY=0.75;exitDx=0;exitDy=0;" edge="1" parent="1" source="1764" target="1765">
          <mxGeometry relative="1" as="geometry">
            <mxPoint x="513" y="295" as="sourcePoint" />
            <mxPoint x="192" y="356" as="targetPoint" />
          </mxGeometry>
        </mxCell>
        <mxCell id="fG_izT3CtpHWqRbIgSZo-1801" value="" style="edgeStyle=none;rounded=0;jumpStyle=none;html=1;shadow=0;labelBackgroundColor=none;startArrow=none;startFill=0;endArrow=classic;endFill=1;jettySize=auto;orthogonalLoop=1;strokeColor=#F08705;strokeWidth=3;fontFamily=Comic Sans MS;fontSize=14;fontColor=#000000;spacing=5;exitX=0.364;exitY=-0.009;exitDx=0;exitDy=0;entryX=0.5;entryY=1;entryDx=0;entryDy=0;exitPerimeter=0;" edge="1" parent="1" source="1764" target="fG_izT3CtpHWqRbIgSZo-1789">
          <mxGeometry relative="1" as="geometry">
            <mxPoint x="523" y="217" as="sourcePoint" />
            <mxPoint x="202" y="278" as="targetPoint" />
          </mxGeometry>
        </mxCell>
        <mxCell id="fG_izT3CtpHWqRbIgSZo-1802" value="" style="edgeStyle=none;rounded=0;jumpStyle=none;html=1;shadow=0;labelBackgroundColor=none;startArrow=none;startFill=0;endArrow=classic;endFill=1;jettySize=auto;orthogonalLoop=1;strokeColor=#F08705;strokeWidth=3;fontFamily=Comic Sans MS;fontSize=14;fontColor=#000000;spacing=5;exitX=0;exitY=0.5;exitDx=0;exitDy=0;entryX=1;entryY=0.5;entryDx=0;entryDy=0;" edge="1" parent="1" source="1764" target="fG_izT3CtpHWqRbIgSZo-1783">
          <mxGeometry relative="1" as="geometry">
            <mxPoint x="533" y="315" as="sourcePoint" />
            <mxPoint x="212" y="376" as="targetPoint" />
          </mxGeometry>
        </mxCell>
        <mxCell id="fG_izT3CtpHWqRbIgSZo-1803" value="" style="edgeStyle=none;rounded=0;jumpStyle=none;html=1;shadow=0;labelBackgroundColor=none;startArrow=none;startFill=0;endArrow=classic;endFill=1;jettySize=auto;orthogonalLoop=1;strokeColor=#F08705;strokeWidth=3;fontFamily=Comic Sans MS;fontSize=14;fontColor=#000000;spacing=5;exitX=0;exitY=0.5;exitDx=0;exitDy=0;entryX=1;entryY=0.5;entryDx=0;entryDy=0;" edge="1" parent="1" source="1764" target="fG_izT3CtpHWqRbIgSZo-1781">
          <mxGeometry relative="1" as="geometry">
            <mxPoint x="543" y="325" as="sourcePoint" />
            <mxPoint x="222" y="386" as="targetPoint" />
          </mxGeometry>
        </mxCell>
        <mxCell id="fG_izT3CtpHWqRbIgSZo-1804" value="" style="edgeStyle=none;rounded=0;jumpStyle=none;html=1;shadow=0;labelBackgroundColor=none;startArrow=none;startFill=0;endArrow=classic;endFill=1;jettySize=auto;orthogonalLoop=1;strokeColor=#F08705;strokeWidth=3;fontFamily=Comic Sans MS;fontSize=14;fontColor=#000000;spacing=5;entryX=0.129;entryY=1.033;entryDx=0;entryDy=0;entryPerimeter=0;exitX=0.589;exitY=0.02;exitDx=0;exitDy=0;exitPerimeter=0;" edge="1" parent="1" source="1764" target="fG_izT3CtpHWqRbIgSZo-1792">
          <mxGeometry relative="1" as="geometry">
            <mxPoint x="650" y="240" as="sourcePoint" />
            <mxPoint x="550" y="60" as="targetPoint" />
          </mxGeometry>
        </mxCell>
        <mxCell id="fG_izT3CtpHWqRbIgSZo-1805" value="" style="edgeStyle=none;rounded=0;jumpStyle=none;html=1;shadow=0;labelBackgroundColor=none;startArrow=none;startFill=0;endArrow=classic;endFill=1;jettySize=auto;orthogonalLoop=1;strokeColor=#F08705;strokeWidth=3;fontFamily=Comic Sans MS;fontSize=14;fontColor=#000000;spacing=5;exitX=0.75;exitY=0;exitDx=0;exitDy=0;" edge="1" parent="1" source="1764" target="fG_izT3CtpHWqRbIgSZo-1793">
          <mxGeometry relative="1" as="geometry">
            <mxPoint x="590" y="248" as="sourcePoint" />
            <mxPoint x="560" y="70" as="targetPoint" />
          </mxGeometry>
        </mxCell>
        <mxCell id="fG_izT3CtpHWqRbIgSZo-1806" value="" style="edgeStyle=none;rounded=0;jumpStyle=none;html=1;shadow=0;labelBackgroundColor=none;startArrow=none;startFill=0;endArrow=classic;endFill=1;jettySize=auto;orthogonalLoop=1;strokeColor=#F08705;strokeWidth=3;fontFamily=Comic Sans MS;fontSize=14;fontColor=#000000;spacing=5;entryX=0;entryY=0.5;entryDx=0;entryDy=0;" edge="1" parent="1" target="fG_izT3CtpHWqRbIgSZo-1794">
          <mxGeometry relative="1" as="geometry">
            <mxPoint x="640" y="250" as="sourcePoint" />
            <mxPoint x="570" y="80" as="targetPoint" />
          </mxGeometry>
        </mxCell>
        <mxCell id="fG_izT3CtpHWqRbIgSZo-1807" value="" style="edgeStyle=none;rounded=0;jumpStyle=none;html=1;shadow=0;labelBackgroundColor=none;startArrow=none;startFill=0;endArrow=classic;endFill=1;jettySize=auto;orthogonalLoop=1;strokeColor=#F08705;strokeWidth=3;fontFamily=Comic Sans MS;fontSize=14;fontColor=#000000;spacing=5;exitX=1;exitY=0.5;exitDx=0;exitDy=0;entryX=0;entryY=0.5;entryDx=0;entryDy=0;" edge="1" parent="1" source="1764" target="fG_izT3CtpHWqRbIgSZo-1795">
          <mxGeometry relative="1" as="geometry">
            <mxPoint x="610" y="268" as="sourcePoint" />
            <mxPoint x="580" y="90" as="targetPoint" />
          </mxGeometry>
        </mxCell>
        <mxCell id="fG_izT3CtpHWqRbIgSZo-1808" value="" style="edgeStyle=none;rounded=0;jumpStyle=none;html=1;shadow=0;labelBackgroundColor=none;startArrow=none;startFill=0;endArrow=classic;endFill=1;jettySize=auto;orthogonalLoop=1;strokeColor=#F08705;strokeWidth=3;fontFamily=Comic Sans MS;fontSize=14;fontColor=#000000;spacing=5;exitX=1;exitY=0.75;exitDx=0;exitDy=0;entryX=0;entryY=0.25;entryDx=0;entryDy=0;" edge="1" parent="1" source="1764" target="fG_izT3CtpHWqRbIgSZo-1796">
          <mxGeometry relative="1" as="geometry">
            <mxPoint x="620" y="278" as="sourcePoint" />
            <mxPoint x="590" y="100" as="targetPoint" />
          </mxGeometry>
        </mxCell>
        <mxCell id="fG_izT3CtpHWqRbIgSZo-1809" value="" style="edgeStyle=none;rounded=0;jumpStyle=none;html=1;shadow=0;labelBackgroundColor=none;startArrow=none;startFill=0;endArrow=classic;endFill=1;jettySize=auto;orthogonalLoop=1;strokeColor=#F08705;strokeWidth=3;fontFamily=Comic Sans MS;fontSize=14;fontColor=#000000;spacing=5;entryX=0;entryY=0.5;entryDx=0;entryDy=0;" edge="1" parent="1" target="fG_izT3CtpHWqRbIgSZo-1797">
          <mxGeometry relative="1" as="geometry">
            <mxPoint x="650" y="280" as="sourcePoint" />
            <mxPoint x="600" y="110" as="targetPoint" />
          </mxGeometry>
        </mxCell>
        <mxCell id="fG_izT3CtpHWqRbIgSZo-1810" value="" style="edgeStyle=none;rounded=0;jumpStyle=none;html=1;shadow=0;labelBackgroundColor=none;startArrow=none;startFill=0;endArrow=classic;endFill=1;jettySize=auto;orthogonalLoop=1;strokeColor=#F08705;strokeWidth=3;fontFamily=Comic Sans MS;fontSize=14;fontColor=#000000;spacing=5;entryX=0.5;entryY=1;entryDx=0;entryDy=0;exitX=0.4;exitY=-0.009;exitDx=0;exitDy=0;exitPerimeter=0;" edge="1" parent="1" source="1764" target="fG_izT3CtpHWqRbIgSZo-1790">
          <mxGeometry relative="1" as="geometry">
            <mxPoint x="610" y="230" as="sourcePoint" />
            <mxPoint x="610" y="120" as="targetPoint" />
          </mxGeometry>
        </mxCell>
        <mxCell id="fG_izT3CtpHWqRbIgSZo-1811" value="" style="edgeStyle=none;rounded=0;jumpStyle=none;html=1;shadow=0;labelBackgroundColor=none;startArrow=none;startFill=0;endArrow=classic;endFill=1;jettySize=auto;orthogonalLoop=1;strokeColor=#F08705;strokeWidth=3;fontFamily=Comic Sans MS;fontSize=14;fontColor=#000000;spacing=5;entryX=0.25;entryY=1;entryDx=0;entryDy=0;exitX=0.5;exitY=0;exitDx=0;exitDy=0;" edge="1" parent="1" source="1764" target="fG_izT3CtpHWqRbIgSZo-1791">
          <mxGeometry relative="1" as="geometry">
            <mxPoint x="620" y="240" as="sourcePoint" />
            <mxPoint x="620" y="130" as="targetPoint" />
          </mxGeometry>
        </mxCell>
        <mxCell id="fG_izT3CtpHWqRbIgSZo-1812" value="" style="edgeStyle=none;rounded=0;jumpStyle=none;html=1;shadow=0;labelBackgroundColor=none;startArrow=none;startFill=0;endArrow=classic;endFill=1;jettySize=auto;orthogonalLoop=1;strokeColor=#F08705;strokeWidth=3;fontFamily=Comic Sans MS;fontSize=14;fontColor=#000000;spacing=5;entryX=0;entryY=0.25;entryDx=0;entryDy=0;" edge="1" parent="1" source="1764" target="fG_izT3CtpHWqRbIgSZo-1798">
          <mxGeometry relative="1" as="geometry">
            <mxPoint x="618" y="302" as="sourcePoint" />
            <mxPoint x="1033" y="350" as="targetPoint" />
          </mxGeometry>
        </mxCell>
      </root>
    </mxGraphModel>
  </diagram>
</mxfile>
